<svg height="220" width="220" viewBox="0 0 33 33" role="img"><path fill="#ffffff" d="M0,0 h33v33H0z" shape-rendering="crispEdges"></path><path fill="#172033" d="M2 2h7v1H2zM11 2h1v1H11zM13 2h4v1H13zM18 2h5v1H18zM24,2 h7v1H24zM2 3h1v1H2zM8 3h1v1H8zM10 3h2v1H10zM13 3h2v1H13zM16 3h3v1H16zM20 3h3v1H20zM24 3h1v1H24zM30,3 h1v1H30zM2 4h1v1H2zM4 4h3v1H4zM8 4h1v1H8zM12 4h1v1H12zM14 4h3v1H14zM18 4h1v1H18zM24 4h1v1H24zM26 4h3v1H26zM30,4 h1v1H30zM2 5h1v1H2zM4 5h3v1H4zM8 5h1v1H8zM12 5h1v1H12zM14 5h3v1H14zM18 5h1v1H18zM20 5h1v1H20zM24 5h1v1H24zM26 5h3v1H26zM30,5 h1v1H30zM2 6h1v1H2zM4 6h3v1H4zM8 6h1v1H8zM10 6h1v1H10zM12 6h2v1H12zM16 6h2v1H16zM20 6h2v1H20zM24 6h1v1H24zM26 6h3v1H26zM30,6 h1v1H30zM2 7h1v1H2zM8 7h1v1H8zM11 7h5v1H11zM17 7h1v1H17zM19 7h1v1H19zM21 7h2v1H21zM24 7h1v1H24zM30,7 h1v1H30zM2 8h7v1H2zM10 8h1v1H10zM12 8h1v1H12zM14 8h1v1H14zM16 8h1v1H16zM18 8h1v1H18zM20 8h1v1H20zM22 8h1v1H22zM24,8 h7v1H24zM11 9h1v1H11zM13 9h8v1H13zM22 9h1v1H22zM2 10h1v1H2zM4 10h1v1H4zM6 10h1v1H6zM8 10h1v1H8zM16 10h1v1H16zM18 10h2v1H18zM21 10h2v1H21zM26 10h1v1H26zM29 10h1v1H29zM5 11h3v1H5zM11 11h2v1H11zM14 11h1v1H14zM16 11h1v1H16zM18 11h3v1H18zM22 11h4v1H22zM27 11h1v1H27zM30,11 h1v1H30zM4 12h1v1H4zM7 12h6v1H7zM15 12h1v1H15zM20 12h1v1H20zM23 12h1v1H23zM25 12h1v1H25zM28,12 h3v1H28zM2 13h2v1H2zM5 13h1v1H5zM9 13h3v1H9zM13 13h2v1H13zM17 13h1v1H17zM19 13h1v1H19zM23 13h3v1H23zM29 13h1v1H29zM2 14h1v1H2zM4 14h1v1H4zM8 14h1v1H8zM12 14h2v1H12zM18 14h2v1H18zM22 14h4v1H22zM27 14h1v1H27zM29,14 h2v1H29zM4 15h2v1H4zM7 15h1v1H7zM9 15h1v1H9zM12 15h1v1H12zM15 15h1v1H15zM18 15h3v1H18zM22 15h3v1H22zM27 15h1v1H27zM30,15 h1v1H30zM2 16h2v1H2zM5 16h1v1H5zM8 16h1v1H8zM10 16h2v1H10zM14 16h1v1H14zM16 16h1v1H16zM20 16h1v1H20zM22 16h1v1H22zM24 16h1v1H24zM26 16h2v1H26zM29,16 h2v1H29zM2 17h1v1H2zM4 17h1v1H4zM6 17h1v1H6zM9 17h1v1H9zM12 17h1v1H12zM15 17h5v1H15zM22 17h1v1H22zM25 17h1v1H25zM27 17h1v1H27zM29 17h1v1H29zM2 18h1v1H2zM7 18h4v1H7zM14 18h1v1H14zM16 18h1v1H16zM18 18h8v1H18zM27 18h1v1H27zM29,18 h2v1H29zM4 19h2v1H4zM7 19h1v1H7zM12 19h3v1H12zM16 19h1v1H16zM18 19h1v1H18zM24 19h1v1H24zM27 19h2v1H27zM30,19 h1v1H30zM2 20h1v1H2zM5 20h1v1H5zM7 20h6v1H7zM15 20h1v1H15zM18 20h2v1H18zM24 20h1v1H24zM26 20h1v1H26zM29,20 h2v1H29zM3 21h1v1H3zM6 21h1v1H6zM12 21h1v1H12zM19 21h5v1H19zM25 21h1v1H25zM27 21h1v1H27zM29 21h1v1H29zM2 22h1v1H2zM4 22h1v1H4zM7 22h3v1H7zM11 22h3v1H11zM19 22h1v1H19zM22 22h5v1H22zM10 23h1v1H10zM13 23h3v1H13zM18 23h2v1H18zM21 23h2v1H21zM26 23h1v1H26zM28,23 h3v1H28zM2 24h7v1H2zM11 24h1v1H11zM16 24h1v1H16zM18 24h5v1H18zM24 24h1v1H24zM26 24h2v1H26zM29,24 h2v1H29zM2 25h1v1H2zM8 25h1v1H8zM12 25h2v1H12zM15 25h5v1H15zM22 25h1v1H22zM26 25h2v1H26zM29 25h1v1H29zM2 26h1v1H2zM4 26h3v1H4zM8 26h1v1H8zM10 26h2v1H10zM13 26h2v1H13zM16 26h1v1H16zM19 26h1v1H19zM22 26h5v1H22zM29,26 h2v1H29zM2 27h1v1H2zM4 27h3v1H4zM8 27h1v1H8zM12 27h2v1H12zM16 27h1v1H16zM18 27h4v1H18zM26 27h1v1H26zM28,27 h3v1H28zM2 28h1v1H2zM4 28h3v1H4zM8 28h1v1H8zM10 28h5v1H10zM19 28h3v1H19zM23 28h1v1H23zM25 28h3v1H25zM30,28 h1v1H30zM2 29h1v1H2zM8 29h1v1H8zM13 29h1v1H13zM15 29h1v1H15zM17 29h1v1H17zM19 29h1v1H19zM21 29h3v1H21zM29 29h1v1H29zM2 30h7v1H2zM10 30h1v1H10zM12 30h1v1H12zM15 30h5v1H15zM21 30h2v1H21zM24 30h1v1H24zM26 30h1v1H26zM29,30 h2v1H29z" shape-rendering="crispEdges"></path></svg>
