<svg height="220" width="220" viewBox="0 0 37 37" role="img"><path fill="#ffffff" d="M0,0 h37v37H0z" shape-rendering="crispEdges"></path><path fill="#172033" d="M2 2h7v1H2zM12 2h1v1H12zM14 2h2v1H14zM19 2h7v1H19zM28,2 h7v1H28zM2 3h1v1H2zM8 3h1v1H8zM10 3h1v1H10zM12 3h1v1H12zM15 3h4v1H15zM20 3h1v1H20zM22 3h1v1H22zM28 3h1v1H28zM34,3 h1v1H34zM2 4h1v1H2zM4 4h3v1H4zM8 4h1v1H8zM14 4h1v1H14zM17 4h1v1H17zM21 4h3v1H21zM25 4h1v1H25zM28 4h1v1H28zM30 4h3v1H30zM34,4 h1v1H34zM2 5h1v1H2zM4 5h3v1H4zM8 5h1v1H8zM10 5h3v1H10zM14 5h3v1H14zM18 5h2v1H18zM21 5h2v1H21zM24 5h3v1H24zM28 5h1v1H28zM30 5h3v1H30zM34,5 h1v1H34zM2 6h1v1H2zM4 6h3v1H4zM8 6h1v1H8zM11 6h1v1H11zM18 6h1v1H18zM20 6h2v1H20zM23 6h1v1H23zM25 6h1v1H25zM28 6h1v1H28zM30 6h3v1H30zM34,6 h1v1H34zM2 7h1v1H2zM8 7h1v1H8zM10 7h2v1H10zM13 7h2v1H13zM17 7h1v1H17zM22 7h3v1H22zM26 7h1v1H26zM28 7h1v1H28zM34,7 h1v1H34zM2 8h7v1H2zM10 8h1v1H10zM12 8h1v1H12zM14 8h1v1H14zM16 8h1v1H16zM18 8h1v1H18zM20 8h1v1H20zM22 8h1v1H22zM24 8h1v1H24zM26 8h1v1H26zM28,8 h7v1H28zM11 9h3v1H11zM16 9h3v1H16zM20 9h2v1H20zM23 9h2v1H23zM2 10h5v1H2zM8 10h4v1H8zM13 10h1v1H13zM15 10h3v1H15zM19 10h2v1H19zM22 10h1v1H22zM27 10h1v1H27zM29 10h1v1H29zM31 10h1v1H31zM33 10h1v1H33zM3 11h2v1H3zM12 11h1v1H12zM14 11h1v1H14zM16 11h1v1H16zM18 11h2v1H18zM21 11h2v1H21zM25 11h1v1H25zM28 11h1v1H28zM32,11 h3v1H32zM2 12h2v1H2zM5 12h4v1H5zM12 12h1v1H12zM17 12h2v1H17zM24 12h1v1H24zM27 12h2v1H27zM30 12h2v1H30zM33 12h1v1H33zM2 13h1v1H2zM5 13h1v1H5zM7 13h1v1H7zM9 13h2v1H9zM14 13h1v1H14zM17 13h1v1H17zM22 13h7v1H22zM30 13h1v1H30zM32 13h1v1H32zM5 14h1v1H5zM8 14h2v1H8zM11 14h2v1H11zM14 14h4v1H14zM19 14h1v1H19zM21 14h1v1H21zM24 14h1v1H24zM27 14h1v1H27zM29 14h3v1H29zM4 15h1v1H4zM6 15h1v1H6zM9 15h2v1H9zM16 15h1v1H16zM18 15h1v1H18zM20 15h4v1H20zM25 15h1v1H25zM28 15h1v1H28zM33,15 h2v1H33zM2 16h2v1H2zM5 16h1v1H5zM8 16h2v1H8zM12 16h3v1H12zM17 16h4v1H17zM22 16h2v1H22zM27 16h1v1H27zM30 16h1v1H30zM33 16h1v1H33zM4 17h2v1H4zM9 17h5v1H9zM17 17h2v1H17zM23 17h3v1H23zM27 17h2v1H27zM32 17h1v1H32zM2 18h2v1H2zM6 18h6v1H6zM13 18h1v1H13zM17 18h1v1H17zM19 18h1v1H19zM21 18h1v1H21zM24 18h4v1H24zM29 18h2v1H29zM33 18h1v1H33zM2 19h3v1H2zM6 19h2v1H6zM9 19h1v1H9zM14 19h2v1H14zM18 19h9v1H18zM28 19h1v1H28zM31 19h1v1H31zM33,19 h2v1H33zM2 20h2v1H2zM5 20h1v1H5zM8 20h5v1H8zM15 20h3v1H15zM19 20h1v1H19zM22 20h2v1H22zM27 20h5v1H27zM33 20h1v1H33zM4 21h2v1H4zM7 21h1v1H7zM11 21h2v1H11zM14 21h2v1H14zM23 21h1v1H23zM30 21h1v1H30zM32 21h1v1H32zM2 22h4v1H2zM7 22h2v1H7zM10 22h2v1H10zM14 22h1v1H14zM16 22h4v1H16zM24 22h4v1H24zM29 22h2v1H29zM33 22h1v1H33zM2 23h1v1H2zM5 23h1v1H5zM11 23h2v1H11zM18 23h8v1H18zM28 23h2v1H28zM31 23h1v1H31zM33,23 h2v1H33zM2 24h1v1H2zM4 24h2v1H4zM8 24h4v1H8zM13 24h2v1H13zM17 24h1v1H17zM23 24h1v1H23zM27 24h1v1H27zM31 24h1v1H31zM33 24h1v1H33zM2 25h1v1H2zM4 25h1v1H4zM10 25h2v1H10zM13 25h1v1H13zM16 25h3v1H16zM22 25h2v1H22zM25 25h1v1H25zM27 25h1v1H27zM29 25h4v1H29zM2 26h1v1H2zM6 26h1v1H6zM8 26h2v1H8zM13 26h1v1H13zM17 26h4v1H17zM22 26h1v1H22zM24 26h8v1H24zM34,26 h1v1H34zM10 27h3v1H10zM14 27h3v1H14zM18 27h7v1H18zM26 27h1v1H26zM30 27h1v1H30zM32 27h1v1H32zM34,27 h1v1H34zM2 28h7v1H2zM10 28h2v1H10zM15 28h5v1H15zM22 28h1v1H22zM25 28h2v1H25zM28 28h1v1H28zM30 28h1v1H30zM32 28h2v1H32zM2 29h1v1H2zM8 29h1v1H8zM11 29h1v1H11zM14 29h2v1H14zM17 29h1v1H17zM20 29h1v1H20zM22 29h5v1H22zM30,29 h5v1H30zM2 30h1v1H2zM4 30h3v1H4zM8 30h1v1H8zM10 30h3v1H10zM14 30h1v1H14zM16 30h1v1H16zM19 30h1v1H19zM26 30h5v1H26zM33,30 h2v1H33zM2 31h1v1H2zM4 31h3v1H4zM8 31h1v1H8zM10 31h1v1H10zM18 31h1v1H18zM20 31h3v1H20zM25 31h1v1H25zM30 31h2v1H30zM33,31 h2v1H33zM2 32h1v1H2zM4 32h3v1H4zM8 32h1v1H8zM10 32h5v1H10zM17 32h1v1H17zM19 32h2v1H19zM24 32h1v1H24zM26 32h1v1H26zM28 32h1v1H28zM32 32h1v1H32zM2 33h1v1H2zM8 33h1v1H8zM10 33h2v1H10zM13 33h1v1H13zM16 33h1v1H16zM20 33h1v1H20zM22 33h3v1H22zM27 33h2v1H27zM31 33h2v1H31zM2 34h7v1H2zM10 34h1v1H10zM13 34h1v1H13zM17 34h3v1H17zM24 34h3v1H24zM28 34h2v1H28zM33 34h1v1H33z" shape-rendering="crispEdges"></path></svg>
